<?xml version="1.0" encoding="utf-8"?>
<!-- Generator: Adobe Illustrator 23.0.1, SVG Export Plug-In . SVG Version: 6.00 Build 0)  -->
<svg version="1.1" id="Vrstva_1" xmlns="http://www.w3.org/2000/svg" xmlns:xlink="http://www.w3.org/1999/xlink" x="0px" y="0px"
	 viewBox="0 0 250 250" style="enable-background:new 0 0 250 250;" xml:space="preserve">
<style type="text/css">
	.st0{fill:#3176BB;}
</style>
<polygon class="st0" points="154.46,205.49 154.46,179 143.26,179 143.26,154.07 140.59,154.07 140.59,65.98 137.47,65.98 
	137.47,55.85 131.62,55.85 131.62,47.28 129.59,47.28 129.59,43.29 128.55,43.29 128.55,41.59 127.42,41.59 127.42,40.78 
	126.43,40.78 126.43,38.79 125.78,38.79 125.78,35.12 125.35,35.12 125.35,24.24 124.65,24.24 124.65,35.12 124.22,35.12 
	124.22,38.79 123.57,38.79 123.57,40.78 122.57,40.78 122.57,41.59 121.45,41.59 121.45,43.29 120.41,43.29 120.41,47.28 
	118.37,47.28 118.37,55.85 112.53,55.85 112.53,65.98 109.41,65.98 109.41,154.07 106.74,154.07 106.74,179 95.54,179 95.54,205.49 
	86,205.49 86,225.76 164,225.76 164,205.49 "/>
</svg>
