<?xml version="1.0" encoding="UTF-8"?>
<svg enable-background="new 0 0 807 280" version="1.1" viewBox="0 0 807 280" xml:space="preserve" xmlns="http://www.w3.org/2000/svg">
<style type="text/css">
	.st0{fill:#3176BB;}
</style>
<path d="m75.4 93.8c-4-3.1-9.9-4.6-17.4-4.6-9.8 0-18 4.6-24.6 13.9s-9.9 21.9-9.9 37.9v73.3h-23v-143.8h23v29.6h0.5c3.3-10.1 8.3-18 15-23.6s14.2-8.5 22.6-8.5c6 0 10.6 0.6 13.8 1.9v23.9"/>
<path d="m298.9 146.4v-21.2c0-11.4-3.9-21.2-11.6-29.3s-17.3-12.2-28.8-12.2c-14.2 0-25.4 5.2-33.4 15.5-8.1 10.3-12.1 24.8-12.1 43.4 0 16 3.9 28.8 11.6 38.4s18 14.4 30.7 14.4c12.9 0 23.4-4.6 31.5-13.8 8-9.2 12.1-20.9 12.1-35.2m23 53.5c0 52.8-25.3 79.1-75.8 79.1-17.8 0-33.3-3.4-46.6-10.1v-23c16.2 9 31.6 13.5 46.3 13.5 35.4 0 53.1-18.8 53.1-56.5v-15.7h-0.6c-11 18.4-27.4 27.5-49.4 27.5-17.9 0-32.3-6.4-43.2-19.2s-16.4-29.9-16.4-51.5c0-24.4 5.9-43.9 17.6-58.3s27.8-21.6 48.2-21.6c19.4 0 33.7 7.8 43.1 23.3h0.6v-19.8h23v132.3z"/>
<path d="m448.7 138.6l-34.7 4.8c-10.7 1.5-18.7 4.1-24.1 8-5.4 3.8-8.2 10.5-8.2 20.1 0 7 2.5 12.8 7.5 17.2s11.7 6.7 20 6.7c11.4 0 20.8-4 28.3-12 7.4-8 11.2-18.1 11.2-30.4v-14.4m23 72.8h-23v-22.5h-0.6c-10 17.2-24.7 25.8-44.2 25.8-14.3 0-25.5-3.8-33.6-11.4s-12.2-17.6-12.2-30.2c0-26.9 15.8-42.5 47.5-46.9l43.1-6c0-24.4-9.9-36.7-29.6-36.7-17.3 0-33 5.9-46.9 17.7v-23.5c14.1-9 30.4-13.5 48.8-13.5 33.8 0 50.7 17.9 50.7 53.6v93.6z"/>
<path d="m634.7 211.4h-23v-82c0-30.5-11.1-45.8-33.4-45.8-11.5 0-21.1 4.3-28.6 13s-11.3 19.6-11.3 32.8v82h-23v-143.8h23v23.9h0.6c10.8-18.1 26.6-27.2 47.2-27.2 15.7 0 27.7 5.1 36.1 15.2 8.3 10.2 12.5 24.8 12.5 44v87.9"/>
<path d="m746 210c-5.4 3-12.6 4.5-21.5 4.5-25.2 0-37.8-14-37.8-42.1v-85.2h-24.7v-19.6h24.7v-35.1l23-7.5v42.5h36.3v19.6h-36.2v81c0 9.6 1.6 16.5 4.9 20.6s8.7 6.2 16.3 6.2c5.8 0 10.8-1.6 15-4.8v19.9"/>
<path d="m800 211.4h-23v-143.8h23v143.8m-11.2-180.3c-4.1 0-7.6-1.4-10.5-4.2s-4.4-6.4-4.4-10.7 1.5-7.9 4.4-10.7 6.4-4.3 10.5-4.3c4.2 0 7.8 1.4 10.8 4.3 2.9 2.8 4.4 6.4 4.4 10.7 0 4.1-1.5 7.6-4.4 10.5-3 2.9-6.6 4.4-10.8 4.4z"/>
<polygon class="st0" points="153.2 195.6 153.2 171.1 142.8 171.1 142.8 148.1 140.4 148.1 140.4 66.7 137.5 66.7 137.5 57.4 132.1 57.4 132.1 49.4 130.2 49.4 130.2 45.8 129.2 45.8 129.2 44.2 128.2 44.2 128.2 43.4 127.3 43.4 127.3 41.6 126.7 41.6 126.7 38.2 126.3 38.2 126.3 28.2 125.6 28.2 125.6 38.2 125.2 38.2 125.2 41.6 124.6 41.6 124.6 43.4 123.7 43.4 123.7 44.2 122.7 44.2 122.7 45.8 121.7 45.8 121.7 49.4 119.8 49.4 119.8 57.4 114.4 57.4 114.4 66.7 111.6 66.7 111.6 148.1 109.1 148.1 109.1 171.1 98.7 171.1 98.7 195.6 89.9 195.6 89.9 214.3 162 214.3 162 195.6"/>
</svg>
